<svg version="1.1" xmlns="http://www.w3.org/2000/svg" style="display: block;" viewBox="0 0 2048 544" width="1024" height="272" preserveAspectRatio="none">
<path transform="translate(0,0)" fill="rgb(255,255,255)" d="M 0 0 L 387.391 0 L 402.111 0 L 2048 0 L 2048 544 L 0 544 L 0 0 z"/>
<path transform="translate(0,0)" fill="rgb(15,60,97)" d="M 387.391 0 L 402.111 0 C 413.902 8.69142 425.229 25.4671 411.048 36.4663 C 376.413 63.3285 341.05 89.6777 306.133 116.272 C 292.412 126.722 281.049 134.348 268.437 116.886 C 254.788 97.9879 269.334 87.9304 284.081 77.5647 C 318.65 52.1255 352.043 24.2681 387.391 0 z"/>
<path transform="translate(0,0)" fill="rgb(15,60,97)" d="M 419.35 48.8754 C 421.529 49.4055 429.814 70.5564 431.908 74.5694 C 453.38 115.71 473.374 139.008 509.43 166.564 C 470.268 195.086 430.952 226.414 392.188 255.813 C 389.283 247.043 377.09 219.868 366.721 218.872 C 351.477 221.963 350.015 256.83 330.106 237.92 C 290.434 268.818 259.684 299.754 222.877 332.437 C 193.987 358.09 149.601 392.048 117.417 414.545 C 104.285 424.816 86.3029 440.76 67.9887 438.961 C 51.152 437.307 38.9993 421.043 40.9303 404.338 C 42.9377 386.971 69.082 369.926 82.7592 358.905 C 110.088 336.883 139.05 314.818 167.992 294.889 C 213.881 265.471 263.652 238.312 306.491 204.361 C 306.169 201.924 305.324 196.498 305.18 194.519 C 303.423 180.805 330.769 184.757 334.636 177.987 C 340.693 167.383 307.58 141.491 302.103 137.36 C 339.285 113.759 382.382 74.7513 419.35 48.8754 z"/>
<path transform="translate(0,0)" fill="rgb(15,60,97)" d="M 1591.77 259.181 L 1662.1 259.041 C 1704.97 259.029 1770.81 255.775 1765 322.218 C 1763.74 336.653 1753.25 346.599 1742.2 354.912 C 1772.82 371.501 1783.32 398.79 1769.4 431.356 C 1749.02 466.465 1693.61 460.734 1658.93 460.678 L 1591.95 460.593 L 1591.77 259.181 z"/>
<path transform="translate(0,0)" fill="rgb(255,255,255)" d="M 1639.37 376.479 C 1658.4 375.733 1707.14 372.582 1720.21 384.07 C 1724.44 387.865 1726.99 393.2 1727.26 398.883 C 1727.62 406.263 1724.61 411.696 1719.81 416.928 C 1705.13 426.615 1658.87 423.11 1639.29 422.967 C 1639.09 407.471 1639.11 391.973 1639.37 376.479 z"/>
<path transform="translate(0,0)" fill="rgb(255,255,255)" d="M 1651.75 296.516 C 1673.42 296.217 1728.59 289.467 1716.18 326.874 C 1714.15 332.971 1707.11 336.132 1701.73 338.355 C 1688.65 341.452 1654.3 340.257 1639.28 340.161 L 1639.14 296.776 L 1651.75 296.516 z"/>
<path transform="translate(0,0)" fill="rgb(15,60,97)" d="M 1095.05 259.078 L 1153.14 259.042 C 1191.07 259.027 1235.95 256.358 1258.58 294.293 C 1269.6 312.758 1270.96 339.842 1263.03 359.698 C 1256.28 376.611 1243.96 386.379 1228.82 395.11 C 1241.85 415.965 1259.38 440.288 1273.54 460.738 L 1256.39 460.664 C 1244.59 460.731 1232.79 460.632 1220.99 460.369 C 1209.31 445.295 1194.42 421.22 1183.67 404.835 C 1170.35 404.605 1156.36 404.849 1142.99 404.881 L 1142.94 460.738 L 1095.29 460.652 C 1094.24 394.21 1095.07 325.682 1095.05 259.078 z"/>
<path transform="translate(0,0)" fill="rgb(255,255,255)" d="M 1142.96 298.927 C 1173.89 298.591 1225.31 291.096 1219.11 338.353 C 1218.23 345.058 1214.85 349.73 1210.67 354.755 C 1194.17 368.617 1164.76 365.084 1142.97 364.899 L 1142.96 298.927 z"/>
<path transform="translate(0,0)" fill="rgb(15,60,97)" d="M 358.065 429.163 C 360.666 429.041 363.269 428.954 365.872 428.903 C 421.531 428.019 479.323 428.718 535.144 428.699 L 590.33 428.685 C 617.027 428.681 641.846 422.572 642.137 457.579 L 642.536 457.584 C 673.758 457.968 670.35 469.389 669.958 496.088 L 625.5 496.082 L 313.135 496.022 C 312.638 471.124 309.037 457.489 339.501 457.737 C 341.029 443.058 343.459 434.717 358.065 429.163 z"/>
<path transform="translate(0,0)" fill="rgb(15,60,97)" d="M 1891.72 256.417 C 1928.08 252.829 1960.64 263.903 1985.78 290.448 C 1975.39 299.929 1965.07 309.481 1954.81 319.103 C 1933.42 298.334 1902.16 290.742 1874.69 303.845 C 1860.54 310.605 1849.72 322.793 1844.68 337.644 C 1833.14 371.049 1850.54 412.595 1886.46 421.098 C 1905.09 425.509 1921.4 422.656 1938.27 414.252 L 1938.21 355.71 L 1954.65 355.589 L 1982.73 355.747 C 1983.16 382.882 1982.86 410.882 1982.92 438.089 C 1963.94 454.178 1943.11 460.177 1917.77 463.674 C 1818.89 477.319 1755.64 373.097 1816.64 293.54 C 1834.02 270.869 1862.13 259.034 1891.72 256.417 z"/>
<path transform="translate(0,0)" fill="rgb(15,60,97)" d="M 1388.46 256.399 C 1395.35 255.883 1402.27 255.83 1409.17 256.239 C 1437.79 258.064 1463.15 268.67 1482.27 290.364 C 1475.09 298.065 1459.42 311.582 1451.24 319.088 C 1430.99 297.215 1396.5 291.27 1369.74 304.036 C 1322.98 326.342 1327.9 403.499 1377.22 419.529 C 1397.37 426.079 1416.33 423.218 1434.98 414.002 L 1435.03 355.596 L 1449.75 355.589 L 1478.71 355.655 C 1479.29 382.572 1479.01 411.127 1478.85 438.098 C 1460.05 452.74 1437.43 461.664 1413.7 463.803 C 1381.3 466.936 1351.73 460.998 1325.89 440.266 C 1281.85 404.929 1276.61 336.351 1312.69 293.502 C 1332.57 269.889 1357.97 259.179 1388.46 256.399 z"/>
<path transform="translate(0,0)" fill="rgb(15,60,97)" d="M 1007.5 259.14 L 1054.91 259.132 L 1054.94 300.256 L 1055.07 349.193 C 1055.12 382.038 1056.12 415.43 1031.16 440.477 C 998.488 473.271 930.004 472.607 897.629 440.119 C 888.205 430.692 881.405 418.968 877.899 406.108 C 871.976 385.134 873.156 352.011 873.21 329.551 L 873.417 259.142 L 921.207 259.166 C 921.675 284.911 920.822 310.824 921.267 336.595 C 922.163 358.981 916.636 394.951 934.74 411.79 C 957.085 432.574 1000.83 423.91 1005.58 390.518 C 1008.17 372.325 1007.28 356.208 1007.26 338.665 C 1007.18 312.156 1007.26 285.648 1007.5 259.14 z"/>
<path transform="translate(0,0)" fill="rgb(15,60,97)" d="M 681.002 259.06 L 852.908 259.202 L 852.955 298.923 L 790.984 299.015 L 791.009 399.5 L 790.997 460.734 L 743.171 460.728 C 741.996 408.325 743.022 351.713 743.004 299.022 L 681.06 298.937 L 681.002 259.06 z"/>
<path transform="translate(0,0)" fill="rgb(206,43,43)" d="M 551.564 257.372 C 568.949 257.001 593.993 256.363 610.867 257.655 C 612.006 289.13 610.843 323.148 611.227 354.952 C 611.359 365.893 611.945 400.254 610.782 410.06 L 609.018 410.937 C 589.068 411.017 569.117 410.988 549.168 410.849 C 547.674 363.003 549.932 313.556 549.157 265.551 C 549.099 261.976 549.434 260.17 551.564 257.372 z"/>
<path transform="translate(0,0)" fill="rgb(15,60,97)" d="M 525.324 176.226 C 528.52 176.41 531.377 176.819 534.226 178.44 C 539.868 181.65 544.834 189.045 546.514 195.253 C 547.686 199.586 547.884 205.22 545.421 209.182 C 540.382 217.289 444.138 291.744 429.183 300.862 C 425.832 302.904 422.187 303.724 418.379 304.501 C 415.254 304.041 411.899 303.013 409.202 301.344 C 403.542 297.842 397.9 291.774 396.396 285.12 C 395.534 281.304 395.807 276.558 397.96 273.196 C 403.893 263.933 502.29 188.804 515.594 180.231 C 518.723 178.214 521.689 177.007 525.324 176.226 z"/>
<path transform="translate(0,0)" fill="rgb(206,43,43)" d="M 463.629 316.268 C 481.881 315.663 504.843 315.842 523.044 316.261 C 524.155 333.385 523.404 354.437 523.514 371.716 C 523.576 381.391 523.896 400.892 522.956 410.036 L 521.075 410.984 L 460.832 410.934 C 460.529 389.121 459.326 341.904 461.61 318.376 C 462.39 317.562 463.063 316.86 463.629 316.268 z"/>
<path transform="translate(0,0)" fill="rgb(206,43,43)" d="M 376.186 360.457 C 393.436 359.594 415.379 359.476 432.337 361.421 C 436.674 361.918 435.946 406.361 434.389 410.433 L 432.25 410.987 L 372.091 410.891 C 371.832 396.385 371.2 380.671 372.222 366.164 C 372.455 362.843 373.69 362.084 376.186 360.457 z"/>
<path transform="translate(0,0)" fill="rgb(15,60,97)" d="M 1528.07 405.788 C 1543.93 402.584 1559.38 412.869 1562.54 428.738 C 1565.7 444.607 1555.37 460.023 1539.49 463.136 C 1523.68 466.235 1508.34 455.956 1505.19 440.153 C 1502.05 424.349 1512.28 408.98 1528.07 405.788 z"/>
</svg>