<svg version="1.1" xmlns="http://www.w3.org/2000/svg" style="display: block;" viewBox="0 0 2048 2048" width="1024" height="1024" preserveAspectRatio="none">
<path transform="translate(0,0)" fill="rgb(255,255,255)" d="M 0 0 L 2048 0 L 2048 2048 L 0 2048 L 0 0 z"/>
<path transform="translate(0,0)" fill="rgb(16,62,99)" d="M 419.701 808.821 C 421.28 810.57 429.002 828.237 430.563 831.722 C 449.471 873.921 474.213 899.696 509.312 928.535 L 392.17 1018.88 C 389.755 1012.01 377.776 986.666 372.284 983.222 C 353.031 971.146 353.033 1023.43 330.044 1000.31 C 309.579 1017.27 289.481 1034.67 269.763 1052.49 C 263.746 1058.03 257.65 1063.71 251.764 1069.38 C 209.447 1110.19 162.219 1147 114.584 1181.38 C 102.591 1190.68 85.9301 1205 69.5563 1204.1 C 45.1831 1203.87 30.6343 1169.24 48.3643 1152.45 C 76.4507 1125.85 110.076 1100.8 140.839 1077.43 C 174.449 1051.89 211.538 1031.37 246.771 1008.15 C 267.389 994.605 287.675 980.559 307.612 966.028 C 295.963 942.853 325.308 947.691 333.229 939.836 C 342.768 930.376 309.102 904.251 301.786 899.037 C 342.647 869.926 379.93 837.938 419.701 808.821 z"/>
<path transform="translate(0,0)" fill="rgb(16,62,99)" d="M 1591.83 1021.99 L 1663.83 1021.9 C 1700.13 1021.89 1756.98 1018.09 1764.84 1067.84 C 1768.58 1091.49 1761.02 1104.91 1742.2 1118.79 C 1773.71 1135.71 1783.06 1164.47 1769.28 1196.62 C 1749.99 1229.72 1701.88 1225.62 1669.14 1225.6 L 1591.76 1225.51 C 1592.48 1158.05 1591.85 1089.53 1591.83 1021.99 z"/>
<path transform="translate(0,0)" fill="rgb(255,255,255)" d="M 1639.34 1140.44 C 1659.43 1140.3 1679.17 1140.04 1699.27 1140.71 C 1723.26 1141.51 1736.38 1161.84 1720.3 1181.33 C 1704.94 1191.24 1659.23 1187.81 1639.25 1187.73 C 1639.19 1171.97 1639.22 1156.2 1639.34 1140.44 z"/>
<path transform="translate(0,0)" fill="rgb(255,255,255)" d="M 1639.16 1059.8 C 1657.73 1059.54 1695.56 1055.51 1711.12 1066.63 C 1720.48 1073.32 1719.24 1088.25 1711.58 1097.18 C 1696.26 1107.31 1658.62 1104.08 1639.26 1104.02 L 1639.16 1059.8 z"/>
<path transform="translate(0,0)" fill="rgb(16,62,99)" d="M 1095.08 1021.98 L 1154.16 1021.9 C 1175.84 1021.88 1192.8 1020.57 1214.6 1025.88 C 1257.67 1036.37 1275.9 1076.25 1265.31 1117.63 C 1260.27 1137.32 1246.38 1149.6 1228.81 1159.41 C 1242.62 1180.99 1258.92 1204.33 1273.52 1225.53 L 1254.5 1225.61 C 1243.23 1225.74 1231.96 1225.66 1220.69 1225.37 C 1208.06 1206.73 1195.64 1187.94 1183.42 1169.02 L 1142.95 1169.01 L 1142.97 1225.4 L 1095.09 1225.51 L 1095.08 1021.98 z"/>
<path transform="translate(0,0)" fill="rgb(255,255,255)" d="M 1142.97 1061.94 C 1158.77 1061.86 1175.38 1061.07 1191.02 1062.92 C 1219.72 1066.32 1228.35 1097.49 1210.68 1118.41 C 1194.42 1132.86 1164.81 1128.99 1142.95 1128.92 L 1142.97 1061.94 z"/>
<path transform="translate(0,0)" fill="rgb(16,62,99)" d="M 361.14 1193.4 C 388.213 1192.68 417.342 1193.2 444.536 1193.19 L 602.424 1193.14 C 627.289 1193.13 642.246 1192.62 641.997 1222.89 C 674.125 1222.44 670.325 1234.42 669.977 1261.42 C 654.927 1261.95 637.714 1261.55 622.5 1261.54 C 520.3 1261.67 415.07 1262.68 313.023 1261.38 C 312.708 1235.65 309.149 1222.22 339.852 1222.94 C 340.464 1206.63 344.432 1197.06 361.14 1193.4 z"/>
<path transform="translate(0,0)" fill="rgb(16,62,99)" d="M 1888.31 1019.37 C 1895.53 1018.77 1902.78 1018.58 1910.02 1018.81 C 1940.64 1019.87 1965.03 1031.57 1985.89 1053.59 C 1975.56 1062.87 1965.16 1073.15 1954.99 1082.73 C 1932.27 1062.41 1905.31 1053.16 1876.09 1066.6 C 1861.76 1073.09 1850.66 1085.1 1845.3 1099.89 C 1839.1 1117.06 1839.91 1135.99 1847.57 1152.56 C 1864.86 1189.59 1904.22 1195.2 1938.33 1178.72 C 1938.18 1158.92 1938.17 1139.13 1938.28 1119.33 L 1952.75 1119.25 L 1982.81 1119.37 L 1982.86 1202.93 C 1965.3 1216.9 1944.2 1225.71 1921.92 1228.38 C 1765.28 1248.55 1748.26 1035.1 1888.31 1019.37 z"/>
<path transform="translate(0,0)" fill="rgb(16,62,99)" d="M 1385.54 1019.38 C 1419.38 1013.41 1459.54 1027.61 1482.24 1053.35 C 1477.1 1059.47 1458.18 1076.4 1451.43 1082.8 C 1442.76 1073.54 1431.75 1066.81 1419.57 1063.3 C 1403.2 1058.51 1382.39 1060.16 1367.35 1068.61 C 1321.6 1094.33 1329.41 1173.6 1382.42 1185.54 C 1399.53 1189.39 1419.72 1187.54 1434.95 1178.24 L 1434.97 1119.28 L 1448.75 1119.24 L 1478.84 1119.34 L 1478.92 1203.13 C 1435.29 1234.91 1372.01 1241.43 1328.04 1206.85 C 1306.47 1190.09 1292.62 1165.31 1289.65 1138.16 C 1282.33 1075.44 1323.19 1026.16 1385.54 1019.38 z"/>
<path transform="translate(0,0)" fill="rgb(16,62,99)" d="M 1007.37 1022 L 1054.98 1021.97 L 1054.96 1065.5 L 1055.05 1113.44 C 1055.07 1146.27 1055.91 1180.96 1030.89 1205.75 C 997.847 1238.48 930.139 1237.78 897.546 1204.87 C 868.641 1175.69 873.077 1133.05 873.125 1095.54 L 873.359 1021.97 L 921.285 1021.94 L 921.264 1098.21 C 921.12 1132.31 914.03 1186.7 964.061 1187.22 C 1014.09 1187.74 1007.2 1137.73 1007.22 1103.3 L 1007.37 1022 z"/>
<path transform="translate(0,0)" fill="rgb(16,62,99)" d="M 680.983 1021.98 C 737.424 1021.08 796.331 1021.96 852.976 1021.97 L 852.981 1062.16 L 790.986 1062.17 L 791.005 1163.5 L 791.02 1225.33 C 775.304 1225.69 758.795 1225.48 743.017 1225.52 L 743.072 1062.12 L 680.961 1062.2 L 680.983 1021.98 z"/>
<path transform="translate(0,0)" fill="rgb(209,42,47)" d="M 550.748 1020.14 C 569.208 1019.56 592.327 1019.78 610.763 1020.27 C 611.661 1033.95 611.435 1062.95 611.234 1076.94 C 611.049 1089.76 612.33 1171.76 609.882 1175.24 C 589.625 1175.38 569.366 1175.32 549.11 1175.05 C 549.006 1153.79 546.818 1028.31 550.748 1020.14 z"/>
<path transform="translate(0,0)" fill="rgb(16,62,99)" d="M 389.425 759.11 C 411.576 757.476 427.475 783.428 410.254 797.395 C 379.052 822.701 346.383 846.409 314.752 871.213 C 307.683 876.757 298.87 883.78 291.141 887.937 C 282.508 890.063 276.233 888.107 270.714 881.243 C 261.08 869.265 259.481 857.971 271.873 848.032 C 300.269 825.201 329.459 803.17 358.516 781.172 C 367.825 774.124 379.243 764.512 389.425 759.11 z"/>
<path transform="translate(0,0)" fill="rgb(16,62,99)" d="M 524.48 938.092 C 545.052 937.921 551.562 967.042 545.099 972.311 C 525.025 988.676 438.312 1064.23 419.467 1067.6 C 416.869 1067.34 414.19 1067.12 411.777 1066.05 C 405.257 1063.18 398.667 1056.21 396.422 1049.42 C 394.986 1045.08 395.477 1040.62 397.637 1036.62 C 402.268 1028.05 502.347 950.465 516.122 941.661 C 518.771 939.967 521.466 938.934 524.48 938.092 z"/>
<path transform="translate(0,0)" fill="rgb(209,42,47)" d="M 464.119 1079.39 C 481.687 1078.92 505.503 1078.93 522.968 1079.58 C 523.624 1087.94 524.293 1168.4 522.631 1174.7 L 520.25 1175.38 C 500.488 1175.55 480.408 1175.28 460.621 1175.21 C 459.015 1146.87 460.703 1116.32 460.545 1087.83 C 460.521 1083.66 461.121 1081.95 464.119 1079.39 z"/>
<path transform="translate(0,0)" fill="rgb(209,42,47)" d="M 374.93 1124.2 C 384.544 1123.99 430.097 1121.84 434.504 1127.64 C 435.553 1132.75 435.559 1168.83 434.708 1174.38 L 433.137 1175.37 C 412.771 1175.5 392.405 1175.43 372.04 1175.17 C 371.874 1164.77 369.513 1131.33 374.93 1124.2 z"/>
<path transform="translate(0,0)" fill="rgb(16,62,99)" d="M 1529.8 1169.93 C 1545.83 1167.71 1560.66 1178.81 1563.03 1194.82 C 1565.4 1210.83 1554.42 1225.76 1538.44 1228.27 C 1522.25 1230.81 1507.09 1219.67 1504.69 1203.46 C 1502.29 1187.25 1513.57 1172.19 1529.8 1169.93 z"/>
</svg>